<?xml version="1.0" encoding="utf-8"?>
<!-- Generator: Adobe Illustrator 24.1.1, SVG Export Plug-In . SVG Version: 6.00 Build 0)  -->
<svg version="1.1" id="Camada_1" xmlns="http://www.w3.org/2000/svg" xmlns:xlink="http://www.w3.org/1999/xlink" x="0px" y="0px"
	 viewBox="0 0 259.3 595.3" style="enable-background:new 0 0 259.3 595.3;" xml:space="preserve">
<style type="text/css">
	.st0{fill:#6FA185;}
</style>
<path class="st0" d="M217.5,409.2c59.1-91.9,63.1-212-37.8-273.1V94.5c25.3-6.4,53.3-11.2,54.2-27c0.3-5.6,0.1-16.4,0-37
	C233.9,10.2,178.8,0.3,129.6,0C80.5,0.3,25.4,10.2,25.4,30.5c-0.1,20.6-0.3,31.3,0,37c0.9,15.8,28.8,20.6,54.2,27v41.6
	c-100.9,61.1-96.9,181.2-37.8,273.1c21.6,35.1,26.7,69.6,7.3,106.9c-6.3,20.3-32.2,52.9-3.6,65.8c25.2,8.9,54.7,13.4,84.2,13.4
	c29.5,0,59-4.5,84.2-13.4c28.5-12.9,2.7-45.4-3.6-65.8C190.9,478.7,195.9,444.3,217.5,409.2z"/>
</svg>
